<?xml version="1.0" encoding="utf-8"?>
<!-- Generator: Adobe Illustrator 22.0.1, SVG Export Plug-In . SVG Version: 6.00 Build 0)  -->
<svg version="1.1" id="Layer_1" xmlns="http://www.w3.org/2000/svg" xmlns:xlink="http://www.w3.org/1999/xlink" x="0px" y="0px"
	 viewBox="0 0 32 32" style="enable-background:new 0 0 32 32;" xml:space="preserve">
<style type="text/css">
	.st0{fill:#FFFAFA;}
</style>
<path class="st0" d="M16,5c-3.2,0-6,2.3-6.8,5.3C8,10.8,6.9,11.8,6.4,13C2.9,12.8,0,15.6,0,19c0,3.3,2.7,6,6,6h8v-0.2l-1.3-0.4
	c-0.7-0.2-1.2-0.7-1.5-1.3H6c-2.2,0-4-1.8-4-4s1.8-4,4-4c0.3,0,0.6,0,0.9,0.1l1,0.2l0.2-1c0.2-1.1,1.1-2,2.2-2.2l0.7-0.2l0.1-0.7
	C11.4,8.8,13.5,7,16,7c1.9,0,3.6,1.1,4.5,2.8l0.4,0.8l0.8-0.3c0.5-0.2,0.9-0.2,1.3-0.2c2.2,0,4,1.8,4,4c0,0,0,0.1,0,0.1
	c0,0.1,0,0.1,0,0.2L26.9,15l0.7,0.3C29,15.9,30,17.4,30,19c0,1.4-0.7,2.6-1.7,3.3l1,0.3c0.4,0.1,0.7,0.3,1,0.6
	c1.1-1.1,1.8-2.6,1.8-4.2c0-2.2-1.2-4.1-3-5.2C28.9,10.6,26.2,8,23,8c-0.4,0-0.8,0-1.2,0.1C20.5,6.2,18.4,5,16,5z M17.5,15.5l-3,6.5
	l3,1v5.5l3-6.5l-3-1V15.5z M25.5,18.5l-3,6.5l3,1v5.5l3-6.5l-3-1V18.5z"/>
</svg>
