<svg xmlns="http://www.w3.org/2000/svg" xmlns:xlink="http://www.w3.org/1999/xlink" width="1280" height="800" viewBox="0 0 1280 800">
  <defs>
    <clipPath id="clip-Web_1280_1">
      <rect width="1280" height="800"/>
    </clipPath>
  </defs>
  <g id="Web_1280_1" data-name="Web 1280 – 1" clip-path="url(#clip-Web_1280_1)">
    <rect width="1280" height="800" fill="#fff"/>
    <g id="Symbol_1_1" data-name="Symbol 1 – 1" transform="translate(23)">
      <path id="Path_1" data-name="Path 1" d="M294.888,190.215v3.808h4.235v-3.808h68.27v3.808h5.838v-3.808h68.077v3.808h5.863v-3.808h66.685v3.808h12.879v-3.808h55.439v3.808H593.3v-3.808h68.125v3.808h5.292v-3.808h66.238v3.808h8.921v-3.808h66.194v3.808h5.649v-3.808H879.61v6.529h5.205v40.635H879.61v208.7h6.021v41.112H879.61v5.773H814.221v-4.1H807.1v4.1H741.376v-4.1h-8.617v4.1H667.085v-4.1h-5.9v4.1H447.187v-4.1h-6.335v4.1H374.315v-4.1h-6.792v4.1h-67.28v-4.1h-5.394v4.1H228.591v-8.059h-5.37V441.18h3.285v-3.489H168.043V375.362h3.711v-6.021h-3.711v-56.5h3.711v-4.529h-3.711V244.8h52.388v-7.421h14.3V190.215h60.16Z" transform="translate(30 1)" fill="none" stroke="#d3d3d3" stroke-width="1"/>
      <path id="Path_2" data-name="Path 2" d="M266.95,193.191v44.455h23.016" transform="translate(60.124 1.947)" fill="none" stroke="#d3d3d3" stroke-width="1"/>
      <path id="Path_3" data-name="Path 3" d="M293.938,190.215v48.378" transform="translate(69.588 1)" fill="none" stroke="#d3d3d3" stroke-width="1"/>
      <path id="Path_4" data-name="Path 4" d="M291.638,226.92h5.429" transform="translate(69.305 12.673)" fill="none" stroke="#d3d3d3" stroke-width="1"/>
      <path id="Path_5" data-name="Path 5" d="M304.516,226.92H350.86" transform="translate(73.4 12.673)" fill="none" stroke="#d3d3d3" stroke-width="1"/>
      <path id="Path_6" data-name="Path 6" d="M322.1,237.723V192.95" transform="translate(78.991 1.87)" fill="none" stroke="#d3d3d3" stroke-width="1"/>
      <path id="Path_9" data-name="Path 9" d="M249.42,242.548V363.272" transform="translate(42.879 18.643)" fill="none" stroke="#d3d3d3" stroke-width="1"/>
      <path id="Path_10" data-name="Path 10" d="M168.043,343.259h81.5v15.479h12.721V343.259" transform="translate(30 49.67)" fill="none" stroke="#d3d3d3" stroke-width="1"/>
      <path id="Path_11" data-name="Path 11" d="M212.26,378.011h48.5v8.239h9.908" transform="translate(44.062 60.722)" fill="none" stroke="#d3d3d3" stroke-width="1"/>
      <path id="Path_12" data-name="Path 12" d="M248.635,355v13.163" transform="translate(43.629 53.405)" fill="none" stroke="#d3d3d3" stroke-width="1"/>
      <path id="Path_13" data-name="Path 13" d="M267.08,426.771V384.262h-2.4" transform="translate(60.731 62.71)" fill="none" stroke="#d3d3d3" stroke-width="1"/>
      <path id="Path_14" data-name="Path 14" d="M275.966,384.262h47.407" transform="translate(64.321 62.71)" fill="none" stroke="#d3d3d3" stroke-width="1"/>
      <path id="Path_15" data-name="Path 15" d="M321.479,426.7V384.482" transform="translate(78.795 62.78)" fill="none" stroke="#d3d3d3" stroke-width="1"/>
      <path id="Path_16" data-name="Path 16" d="M346.549,384.262h28.2" transform="translate(67.993 63.02)" fill="none" stroke="#d3d3d3" stroke-width="1"/>
      <path id="Path_17" data-name="Path 17" d="M350.028,431.214V384.391" transform="translate(87.874 62.751)" fill="none" stroke="#d3d3d3" stroke-width="1"/>
      <path id="Path_18" data-name="Path 18" d="M383.222,426.978V383.611H358.975" transform="translate(91.719 63.503)" fill="none" stroke="#d3d3d3" stroke-width="1"/>
      <path id="Path_19" data-name="Path 19" d="M377.372,383.611H379.9" transform="translate(96.57 62.503)" fill="none" stroke="#d3d3d3" stroke-width="1"/>
      <path id="Path_20" data-name="Path 20" d="M387.286,383.611h47.756" transform="translate(99.722 62.503)" fill="none" stroke="#d3d3d3" stroke-width="1"/>
      <path id="Path_21" data-name="Path 21" d="M405.4,431.421V383.738" transform="translate(105.484 62.543)" fill="none" stroke="#d3d3d3" stroke-width="1"/>
      <path id="Path_23" data-name="Path 23" d="M435.219,431.129V383.278h-5.773" transform="translate(113.13 62.836)" fill="none" stroke="#d3d3d3" stroke-width="1"/>
      <path id="Path_25" data-name="Path 25" d="M485.734,391.766" transform="translate(125.688 65.097)" fill="none" stroke="#d3d3d3" stroke-width="1"/>
      <path id="Path_26" data-name="Path 26" d="M488.525,431.167V383.979h3.727" transform="translate(134.017 62.62)" fill="none" stroke="#d3d3d3" stroke-width="1"/>
      <path id="Path_27" data-name="Path 27" d="M498.943,383.979H545.4" transform="translate(135.231 62.62)" fill="none" stroke="#d3d3d3" stroke-width="1"/>
      <path id="Path_28" data-name="Path 28" d="M515.938,431.313V384.08" transform="translate(140.636 62.652)" fill="none" stroke="#d3d3d3" stroke-width="1"/>
      <path id="Path_29" data-name="Path 29" d="M542.142,383.979H567.5" transform="translate(149.969 62.62)" fill="none" stroke="#d3d3d3" stroke-width="1"/>
      <path id="Path_30" data-name="Path 30" d="M544.427,426.814V384.037" transform="translate(149.696 62.638)" fill="none" stroke="#d3d3d3" stroke-width="1"/>
      <path id="Path_31" data-name="Path 31" d="M569.695,383.979h6.752" transform="translate(157.731 62.62)" fill="none" stroke="#d3d3d3" stroke-width="1"/>
      <path id="Path_32" data-name="Path 32" d="M572.256,431.308V384.1" transform="translate(158.546 62.657)" fill="none" stroke="#d3d3d3" stroke-width="1"/>
      <path id="Path_33" data-name="Path 33" d="M582.106,384.1h47.448" transform="translate(161.678 62.657)" fill="none" stroke="#d3d3d3" stroke-width="1"/>
      <path id="Path_34" data-name="Path 34" d="M600.105,427.066V384.087" transform="translate(167.402 62.654)" fill="none" stroke="#d3d3d3" stroke-width="1"/>
      <path id="Path_35" data-name="Path 35" d="M624.6,384.087h7.736" transform="translate(175.192 62.654)" fill="none" stroke="#d3d3d3" stroke-width="1"/>
      <path id="Path_36" data-name="Path 36" d="M628.285,431.276V384.2" transform="translate(176.364 62.689)" fill="none" stroke="#d3d3d3" stroke-width="1"/>
      <path id="Path_37" data-name="Path 37" d="M637.5,384.087h46.684" transform="translate(179.294 62.654)" fill="none" stroke="#d3d3d3" stroke-width="1"/>
      <path id="Path_38" data-name="Path 38" d="M655.208,384.2v42.941" transform="translate(184.926 62.689)" fill="none" stroke="#d3d3d3" stroke-width="1"/>
      <path id="Path_39" data-name="Path 39" d="M680.439,384.087h6.1" transform="translate(192.949 62.654)" fill="none" stroke="#d3d3d3" stroke-width="1"/>
      <path id="Path_40" data-name="Path 40" d="M682.753,431.281v-47.1" transform="translate(193.685 62.684)" fill="none" stroke="#d3d3d3" stroke-width="1"/>
      <path id="Path_41" data-name="Path 41" d="M693.31,384.087h19.453" transform="translate(197.043 62.654)" fill="none" stroke="#d3d3d3" stroke-width="1"/>
      <path id="Path_42" data-name="Path 42" d="M665.519,408.441h87.654V241.975H665.519" transform="translate(129.852 17.461)" fill="none" stroke="#d3d3d3" stroke-width="1"/>
      <path id="Path_43" data-name="Path 43" d="M728.166,305.065H547.734" transform="translate(154.859 37.299)" fill="none" stroke="#d3d3d3" stroke-width="1"/>
      <path id="Path_44" data-name="Path 44" d="M354.1,406.458H264.993V242.3H354.1" transform="translate(60.831 18.89)" fill="none" stroke="#d3d3d3" stroke-width="1"/>
      <path id="Path_45" data-name="Path 45" d="M322.193,242.3V391.892" transform="translate(717.716 20.172) rotate(90)" fill="none" stroke="#d3d3d3" stroke-width="1"/>
      <path id="Path_46" data-name="Path 46" d="M332.6,242.73h42.008" transform="translate(104.142 17.135)" fill="none" stroke="#d3d3d3" stroke-width="1"/>
      <path id="Path_47" data-name="Path 47" d="M389.2,242.3h52.019V407.784H389.2" transform="translate(89.556 17.564)" fill="none" stroke="#d3d3d3" stroke-width="1"/>
      <path id="Path_48" data-name="Path 48" d="M396.516,367.855H332.3" transform="translate(82.237 57.492)" fill="none" stroke="#d3d3d3" stroke-width="1"/>
      <path id="Path_50" data-name="Path 50" d="M332.6,324.819h60.479V243" transform="translate(85.333 17.787)" fill="none" stroke="#d3d3d3" stroke-width="1"/>
      <path id="Path_51" data-name="Path 51" d="M590.767,241.975H506.579v59.267h32.943V317.33H506.579v22.5h32.943v14.2H506.579v54.622h83.188" transform="translate(137.659 17.461)" fill="none" stroke="#d3d3d3" stroke-width="1"/>
      <path id="Path_52" data-name="Path 52" d="M581.741,241.975h29.4" transform="translate(161.562 17.461)" fill="none" stroke="#d3d3d3" stroke-width="1"/>
      <path id="Path_55" data-name="Path 55" d="M581.741,367.814h29.4" transform="translate(161.562 57.479)" fill="none" stroke="#d3d3d3" stroke-width="1"/>
      <path id="Path_56" data-name="Path 56" d="M347.215,226.791h5.819" transform="translate(86.979 12.632)" fill="none" stroke="#d3d3d3" stroke-width="1"/>
      <path id="Path_57" data-name="Path 57" d="M349.423,190.215v48.394" transform="translate(87.681 1)" fill="none" stroke="#d3d3d3" stroke-width="1"/>
      <path id="Path_58" data-name="Path 58" d="M382.7,194.106v44.476H359.658" transform="translate(90.936 1.153)" fill="none" stroke="#d3d3d3" stroke-width="1"/>
      <path id="Path_59" data-name="Path 59" d="M386.724,227.028h48.7" transform="translate(99.544 12.707)" fill="none" stroke="#d3d3d3" stroke-width="1"/>
      <path id="Path_60" data-name="Path 60" d="M405.2,190.215V239" transform="translate(105.42 1)" fill="none" stroke="#d3d3d3" stroke-width="1"/>
      <path id="Path_61" data-name="Path 61" d="M434.186,193.351v44.388H430" transform="translate(113.308 1.997)" fill="none" stroke="#d3d3d3" stroke-width="1"/>
      <path id="Path_62" data-name="Path 62" d="M440.754,227.028h-7.563" transform="translate(114.321 12.707)" fill="none" stroke="#d3d3d3" stroke-width="1"/>
      <path id="Path_63" data-name="Path 63" d="M489.331,193.113v44.7h3.922" transform="translate(130.281 1.922)" fill="none" stroke="#d3d3d3" stroke-width="1"/>
      <path id="Path_64" data-name="Path 64" d="M522.268,190.215v48.521H545.5" transform="translate(135.14 1)" fill="none" stroke="#d3d3d3" stroke-width="1"/>
      <path id="Path_65" data-name="Path 65" d="M544.812,193.283v44.468h22.909" transform="translate(148.955 1.976)" fill="none" stroke="#d3d3d3" stroke-width="1"/>
      <path id="Path_66" data-name="Path 66" d="M572.488,190.215V238.8h2.81" transform="translate(157.77 1)" fill="none" stroke="#d3d3d3" stroke-width="1"/>
      <path id="Path_67" data-name="Path 67" d="M604.932,193.283V237.8h24.137" transform="translate(161.661 1.976)" fill="none" stroke="#d3d3d3" stroke-width="1"/>
      <path id="Path_68" data-name="Path 68" d="M627.912,190.215v48.661H650.78" transform="translate(175.511 1)" fill="none" stroke="#d3d3d3" stroke-width="1"/>
      <path id="Path_69" data-name="Path 69" d="M656.526,193.283v44.561h-3.21" transform="translate(184.324 1.976)" fill="none" stroke="#d3d3d3" stroke-width="1"/>
      <path id="Path_70" data-name="Path 70" d="M683.145,190.215v48.617h-2.567" transform="translate(192.994 1)" fill="none" stroke="#d3d3d3" stroke-width="1"/>
      <path id="Path_71" data-name="Path 71" d="M693.114,227.134h19.259" transform="translate(196.98 12.741)" fill="none" stroke="#d3d3d3" stroke-width="1"/>
      <path id="Path_72" data-name="Path 72" d="M599.411,241.975V408.441" transform="translate(153.182 17.461)" fill="none" stroke="#d3d3d3" stroke-width="1"/>
      <path id="Path_73" data-name="Path 73" d="M359.423,311.232H265.13" transform="translate(-67.125 9.375)" fill="none" stroke="#d3d3d3" stroke-width="1"/>
      <path id="Path_74" data-name="Path 74" d="M345.519,311.232H265.13" transform="translate(698.383 79.234) rotate(90)" fill="none" stroke="#d3d3d3" stroke-width="1"/>
      <path id="Path_75" data-name="Path 75" d="M395.542,426.978V383.611H358.975" transform="translate(28.719 -1.497)" fill="none" stroke="#d3d3d3" stroke-width="1"/>
      <path id="Path_76" data-name="Path 76" d="M405.2,190.215V239" transform="translate(719.229 -99.591) rotate(90)" fill="none" stroke="#d3d3d3" stroke-width="1"/>
      <path id="Path_77" data-name="Path 77" d="M405.2,190.215V239" transform="translate(719.229 -22.591) rotate(90)" fill="none" stroke="#d3d3d3" stroke-width="1"/>
      <path id="Path_78" data-name="Path 78" d="M384.615,431.485V383.611H358.975" transform="translate(889.235 752.092) rotate(180)" fill="none" stroke="#d3d3d3" stroke-width="1"/>
      <path id="Path_79" data-name="Path 79" d="M405.7,190.215v24.395" transform="translate(719.229 -85.087) rotate(90)" fill="none" stroke="#d3d3d3" stroke-width="1"/>
      <path id="Path_80" data-name="Path 80" d="M286.068,232.525H222.332V226.95h-9.7" transform="translate(463.771 34.012) rotate(90)" fill="none" stroke="#d3d3d3" stroke-width="1"/>
      <path id="Path_81" data-name="Path 81" d="M304.516,226.92H350.86" transform="translate(-39.6 11.673)" fill="none" stroke="#d3d3d3" stroke-width="1"/>
      <path id="Path_82" data-name="Path 82" d="M350.028,431.214V384.391" transform="translate(14.874 62.751)" fill="none" stroke="#d3d3d3" stroke-width="1"/>
      <path id="Path_83" data-name="Path 83" d="M405.4,431.421V383.738" transform="translate(180.484 62.543)" fill="none" stroke="#d3d3d3" stroke-width="1"/>
      <path id="Path_84" data-name="Path 84" d="M387.286,383.611h47.756" transform="translate(173.722 62.503)" fill="none" stroke="#d3d3d3" stroke-width="1"/>
      <path id="Path_85" data-name="Path 85" d="M599.411,241.975V408.441" transform="translate(103.182 17.461)" fill="none" stroke="#d3d3d3" stroke-width="1"/>
      <path id="Path_87" data-name="Path 87" d="M691.593,311.859H677.414V375.8h14.179" fill="none" stroke="#d3d3d3" stroke-linejoin="bevel" stroke-width="1"/>
      <path id="Path_88" data-name="Path 88" d="M599.411,241.975V294.4" transform="translate(92.182 17.461)" fill="none" stroke="#d3d3d3" stroke-width="1"/>
      <path id="Path_89" data-name="Path 89" d="M599.411,241.975v50.672" transform="translate(92.182 133.461)" fill="none" stroke="#d3d3d3" stroke-width="1"/>
    </g>
  </g>
</svg>
