<?xml version="1.0" encoding="utf-8"?>
<!-- Generator: Adobe Illustrator 22.0.1, SVG Export Plug-In . SVG Version: 6.00 Build 0)  -->
<svg version="1.1" id="Symbol_1_1" xmlns="http://www.w3.org/2000/svg" xmlns:xlink="http://www.w3.org/1999/xlink" x="0px" y="0px"
	 viewBox="0 0 718.6 303.8" style="enable-background:new 0 0 718.6 303.8;" xml:space="preserve">
<style type="text/css">
	.st0{fill:none;stroke:#FFFFFF;}
</style>
<path id="Path_1" class="st0" d="M61.7,0.5h65.6v3.8h4.2V0.5h68.3v3.8h5.8V0.5h68.1v3.8h5.9V0.5h66.7v3.8h12.9V0.5h55.4v3.8h11.1
	V0.5h68.1v3.8h5.3V0.5h66.2v3.8h8.9V0.5h66.2v3.8h5.6V0.5h65.9V7h5.2v40.6h-5.2v208.7h6v41.1h-6v5.8h-65.4v-4.1h-7.1v4.1h-65.7v-4.1
	h-8.6v4.1h-65.7v-4.1h-5.9v4.1h-68.1v-4.1H423v-34.6h-9.2v8.7h5.8v21.9h-5.8v8h-54.4v-8h-6.5v-21.9h6.5v-7.1h-8.6v33h-5.3v4.1h-65.8
	v-4.1h-6.3v4.1h-66.5v-4.1H200v4.1h-67.3v-4.1h-5.4v4.1H61v-8.1h-5.4v-43.7H59V248H0.5v-62.3h3.7v-6H0.5v-56.5h3.7v-4.5H0.5V55.1
	h52.4v3H59v-7.2h-3.3V7.2h6.1L61.7,0.5z"/>
<path id="Path_2" class="st0" d="M129.5,4.4v44.5h23"/>
<path id="Path_3" class="st0" d="M166,0.5v48.4"/>
<path id="Path_4" class="st0" d="M163.4,48.9h5.4"/>
<path id="Path_5" class="st0" d="M180.4,48.9h46.3"/>
<path id="Path_6" class="st0" d="M203.5,48.9V4.1"/>
<path id="Path_7" class="st0" d="M59.3,55.9h48.5v-7h7.4"/>
<path id="Path_8" class="st0" d="M107.8,55.9v3.4"/>
<path id="Path_9" class="st0" d="M107.8,69.5v120.7"/>
<path id="Path_10" class="st0" d="M0.5,202.2h91.9v15.5h14.3v-15.5"/>
<path id="Path_11" class="st0" d="M58.8,248h48.5v8.2h9.9"/>
<path id="Path_12" class="st0" d="M106.7,217.7v13.2"/>
<path id="Path_13" class="st0" d="M130.3,298.8v-42.5h-2.4"/>
<path id="Path_14" class="st0" d="M142.7,256.3H227"/>
<path id="Path_15" class="st0" d="M202.7,298.8v-42.2"/>
<path id="Path_16" class="st0" d="M235.8,256.3h6.4"/>
<path id="Path_17" class="st0" d="M240.4,303.2v-46.8"/>
<path id="Path_18" class="st0" d="M276.4,298.8v-43.4h-24.2"/>
<path id="Path_19" class="st0" d="M276.4,255.4h2.5"/>
<path id="Path_20" class="st0" d="M289.5,255.4h47.8"/>
<path id="Path_21" class="st0" d="M313.3,303.2v-47.7"/>
<path id="Path_23" class="st0" d="M350.6,266.1V255H345"/>
<path id="Path_24" class="st0" d="M359,266.1h18.1"/>
<path id="Path_25" class="st0" d="M397.1,266.1h16.8"/>
<path id="Path_26" class="st0" d="M423,265v-9.1h3.7"/>
<path id="Path_27" class="st0" d="M436.6,255.9h46.5"/>
<path id="Path_28" class="st0" d="M459,303.2V256"/>
<path id="Path_29" class="st0" d="M493.6,255.9h25.4"/>
<path id="Path_30" class="st0" d="M496.6,298.7V256"/>
<path id="Path_31" class="st0" d="M529.9,255.9h6.8"/>
<path id="Path_32" class="st0" d="M533.3,303.2V256"/>
<path id="Path_33" class="st0" d="M546.2,256h47.4"/>
<path id="Path_34" class="st0" d="M570,299v-43"/>
<path id="Path_35" class="st0" d="M602.2,256h7.7"/>
<path id="Path_36" class="st0" d="M607.1,303.2v-47.1"/>
<path id="Path_37" class="st0" d="M619.3,256h46.7"/>
<path id="Path_38" class="st0" d="M642.6,256.2v42.9"/>
<path id="Path_39" class="st0" d="M675.8,256h6.1"/>
<path id="Path_40" class="st0" d="M678.9,303.2v-47.1"/>
<path id="Path_41" class="st0" d="M692.8,256h19.5"/>
<path id="Path_42" class="st0" d="M656.2,235.4h29.3V68.7h-29.3"/>
<path id="Path_43" class="st0" d="M685.5,151.9H500.9"/>
<path id="Path_44" class="st0" d="M189.5,234.6h-61.2V69.1h61.2"/>
<path id="Path_45" class="st0" d="M203.7,69.1v165.3"/>
<path id="Path_46" class="st0" d="M217.4,69.1h63.8"/>
<path id="Path_47" class="st0" d="M292,69.1h33.2v165.5H292"/>
<path id="Path_48" class="st0" d="M281.2,234.6H217"/>
<path id="Path_49" class="st0" d="M189.5,151.9h-61"/>
<path id="Path_50" class="st0" d="M217.4,151.9h60.5V70.1"/>
<path id="Path_51" class="st0" d="M535.2,68.7h-88.5v71.9h9.1v23.5h-9.1v71.2h88.5"/>
<path id="Path_52" class="st0" d="M545.8,68.7h46.6"/>
<path id="Path_53" class="st0" d="M604,68.7h39.4v165.9"/>
<path id="Path_54" class="st0" d="M604,235.4h39.4v-7.2"/>
<path id="Path_55" class="st0" d="M545.8,234.6h46.7"/>
<path id="Path_56" class="st0" d="M236.7,48.7h5.8"/>
<path id="Path_57" class="st0" d="M239.6,0.5v48.4"/>
<path id="Path_58" class="st0" d="M276.1,4.5V49h-23"/>
<path id="Path_59" class="st0" d="M288.7,49h48.7"/>
<path id="Path_60" class="st0" d="M313.1,0.5v48.8"/>
<path id="Path_61" class="st0" d="M350,4.6V49h-4.2"/>
<path id="Path_62" class="st0" d="M357.5,49H350"/>
<path id="Path_63" class="st0" d="M422.1,4.3V49h3.9"/>
<path id="Path_64" class="st0" d="M459.9,0.5V49h23.2"/>
<path id="Path_65" class="st0" d="M496.2,4.5V49h22.9"/>
<path id="Path_66" class="st0" d="M532.7,0.5v48.6h2.8"/>
<path id="Path_67" class="st0" d="M569,4.5v44.5h24.1"/>
<path id="Path_68" class="st0" d="M605.9,0.5v48.7h22.9"/>
<path id="Path_69" class="st0" d="M643.3,4.5v44.6h-3.2"/>
<path id="Path_70" class="st0" d="M678.6,0.5v48.6H676"/>
<path id="Path_71" class="st0" d="M692.6,49.2h19.3"/>
<path id="Path_72" class="st0" d="M569.1,68.7v166.5"/>
</svg>
