<?xml version="1.0" encoding="utf-8"?>
<!-- Generator: Adobe Illustrator 22.0.1, SVG Export Plug-In . SVG Version: 6.00 Build 0)  -->
<svg version="1.1" xmlns="http://www.w3.org/2000/svg" xmlns:xlink="http://www.w3.org/1999/xlink" x="0px" y="0px"
	 viewBox="0 0 1000 1000" style="enable-background:new 0 0 1000 1000;" xml:space="preserve">
<style type="text/css">
	.st0{fill:#292B2C;}
	.st1{fill:#1E90FF;}
</style>
<g id="Layer_2">
	<rect x="118.9" y="186.7" class="st0" width="757.4" height="542.2"/>
	<rect x="344.3" y="720.4" class="st0" width="325.3" height="96.6"/>
</g>
<g id="Layer_1">
	<g>
		<g transform="translate(0.000000,511.000000) scale(0.100000,-0.100000)">
			<path class="st1" d="M1297.3,3408.5c-76.5-28.2-177.1-108.7-229.4-185.1l-30-44.4c-40.8-60.2-62.6-131.3-62.6-204.1V587.2
				v-2348.5c0-96.5-38.3-189.1-106.6-257.4l-340.1-340.2C114-2777.5,81.8-2817.7,106-2926.4c16.1-68.4,72.5-165,128.8-217.4l0,0
				c67.3-62.1,155.4-96.6,247-96.6H5000h4518.2c91.5,0,179.7,34.5,247,96.6v0c56.3,52.4,112.7,148.9,128.8,217.4
				c24.2,108.7-8,148.9-422.6,567.5l-340.6,340.7c-68,68-106.3,160.1-106.6,256.2l-7.6,2393.5l-11.4,2398.2
				c-0.4,90.9-34.9,178.4-96.6,245.2l-0.7,0.7c-56.3,56.3-165,120.7-241.5,144.9C8445.1,3481,1478.4,3468.9,1297.3,3408.5z
				 M8561.9,542.9v-2455.1H5000H1438.2l-12.1,2414.8c-4,1328.2,0,2439,12.1,2467.1c12.1,40.2,748.6,48.3,3569.9,40.2l3553.8-12.1
				L8561.9,542.9L8561.9,542.9z M6066.5-2580.3c100.6-92.6,169-181.1,157-201.2c-28.2-48.3-2418.8-48.3-2447,0
				c-12.1,20.1,56.3,108.7,157,201.2l181.1,165H5000h885.4L6066.5-2580.3z"/>
		</g>
	</g>
</g>
</svg>
