<?xml version="1.0" encoding="utf-8"?>
<!-- Generator: Adobe Illustrator 22.0.1, SVG Export Plug-In . SVG Version: 6.00 Build 0)  -->
<svg version="1.1" id="Layer_1" xmlns="http://www.w3.org/2000/svg" xmlns:xlink="http://www.w3.org/1999/xlink" x="0px" y="0px"
	 viewBox="0 0 24 24" style="enable-background:new 0 0 24 24;" xml:space="preserve">
<style type="text/css">
	.st0{fill:#FFFFFF;}
	.st1{fill:#FF6347;}
</style>
<ellipse class="st0" cx="12" cy="12.2" rx="9.4" ry="9.2"/>
<path class="st1" d="M4.9,4.9C1,8.8,1,15.2,4.9,19.1s10.3,3.9,14.1,0S22.9,8.8,19,5S8.8,1,4.9,4.9z M6.3,6.3h4.2L9.2,7.8l1.4,1.4
	l-1.4,1.4L7.8,9.2l-1.4,1.4L6.3,6.3L6.3,6.3z M7.1,18.4L5.7,17l1.4-1.4l-1.4-1.4h4.2v4.2L8.5,17L7.1,18.4z M17.7,17.7h-4.2l1.4-1.4
	l-1.4-1.4l1.4-1.4l1.4,1.4l1.4-1.4V17.7z M16.9,8.5l1.4,1.4h-4.2V5.6L15.5,7l1.4-1.4L18.3,7L16.9,8.5z"/>
</svg>
